<svg width="32" height="32" viewBox="0 0 32 32" fill="none" xmlns="http://www.w3.org/2000/svg">
<path d="M1.33325 6.66602H30.6666V25.3327H1.33325V6.66602Z" fill="#3F51B5"/>
<path d="M1.33325 9.47668L15.2066 17.956L17.2926 14.5427L4.40525 6.66602H1.33325V9.47668Z" fill="white"/>
<path d="M30.6667 6.66602H28.2607L15.374 14.542L17.4594 17.956L30.6667 9.88335V6.66602Z" fill="white"/>
<path d="M17.4594 13.5137L15.374 16.927L29.1273 25.333H30.6667V21.5857L17.4594 13.5137Z" fill="white"/>
<path d="M1.33325 21.9937V25.333H3.53992L17.2926 16.9277L15.2072 13.5137L1.33325 21.9937Z" fill="white"/>
<path d="M1.33325 13.332H30.6666V18.6654H1.33325V13.332Z" fill="white"/>
<path d="M13.3333 6.66602H18.6666V25.3327H13.3333V6.66602Z" fill="white"/>
<path d="M11.4786 13.3327L1.33325 7.13202V8.69468L8.92125 13.3327H11.4786ZM29.5392 6.66602L18.6312 13.3327H21.1879L30.6666 7.54001V6.66602H29.5392ZM22.0546 18.666L30.6666 23.9293V22.3667L24.6112 18.666H22.0546ZM10.6119 18.666L1.33325 24.3367V25.3327H2.26125L13.1686 18.666H10.6119ZM1.33325 14.666H30.6666V17.3327H1.33325V14.666Z" fill="#E53935"/>
<path d="M14.6665 6.66602H17.3332V25.3327H14.6665V6.66602Z" fill="#E53935"/>
</svg>
